<svg width="182" height="86" viewBox="0 0 182 86" xmlns="http://www.w3.org/2000/svg" xmlns:xlink="http://www.w3.org/1999/xlink"><title>euvino-logo</title><defs><path id="a" d="M19.774 83.979H0V0h39.547v83.979z"/><linearGradient x1="50%" y1="0%" x2="50%" y2="100%" id="b"><stop stop-color="#00543e" offset="0%"/><stop stop-color="#172209" offset="100%"/></linearGradient></defs><g fill="none" fill-rule="evenodd"><g transform="translate(1 1)"><mask id="c" fill="#fff"><use xlink:href="#a"/></mask><path d="M27.307 68.285c.062 2.241-1.133 3.295-1.87 3.574-.84.33-10.488.33-11.328 0-.732-.28-1.933-1.333-1.87-3.574.066-2.242-.502-30.648-.477-31.702.05-2.22-.305-5.282 2.72-8.788 1.985-2.302 2.101-2.837 2.13-4.268.036-1.435.254-11.688.239-11.938-.015-.179-.09-.254-.203-.291h-.105l.003-1.823h.131c.068-.033.083-.099.083-.23v-.984h.033c.105-.101.118-.381.395-.381h5.128c.272 0 .286.28.388.381h.04v.984c0 .131.019.197.083.23h.17v1.823H22.9c-.116.037-.196.112-.208.29-.014.251.208 10.504.24 11.94.028 1.43.147 1.965 2.126 4.267 3.028 3.506 2.677 6.568 2.727 8.788.022 1.054-.543 29.46-.478 31.702m6.344-63.007C29.718 1.758 25.093 0 19.776 0 14.53 0 9.923 1.78 5.955 5.337 1.984 8.894 0 13.84 0 20.18v43.614C0 70.213 1.967 75.183 5.896 78.7c3.934 3.52 8.56 5.279 13.88 5.279 5.239 0 9.844-1.78 13.817-5.337 3.97-3.556 5.954-8.504 5.954-14.847V20.18c0-6.416-1.967-11.385-5.896-14.903" fill="url(#b)" mask="url(#c)"/></g><path d="M54.592 53V14.552h16.416v5.184H60.1v11.286h9.504v5.184H60.1v11.286h10.908V53H54.592zm37.8-38.448V44.36c0 2.52-.873 4.635-2.619 6.345-1.746 1.71-3.843 2.565-6.291 2.565-2.448 0-4.545-.855-6.291-2.565-1.746-1.71-2.619-3.825-2.619-6.345V14.552h5.508V43.82c0 1.332.324 2.331.972 2.997.648.666 1.458.999 2.43.999.972 0 1.782-.333 2.43-.999.648-.666.972-1.665.972-2.997V14.552h5.508zm23.868 0L108.376 53h-4.86l-7.83-38.448h5.832l4.374 26.838H106l4.428-26.838h5.832zM119.716 53V14.552h5.508V53h-5.508zm10.638 0V14.552h5.292l8.316 23.166h.108V14.552h5.508V53h-5.184l-8.424-23.112h-.108V53h-5.508zm23.868-9.072V23.624c0-2.952.882-5.211 2.646-6.777 1.764-1.566 3.726-2.421 5.886-2.565.108-.036.225-.054.351-.054h.702c.126 0 .243.018.351.054 2.16.144 4.122.999 5.886 2.565 1.764 1.566 2.646 3.825 2.646 6.777v20.304c0 2.952-.882 5.202-2.646 6.75-1.764 1.548-3.726 2.394-5.886 2.538a1.104 1.104 0 0 1-.351.054h-.702c-.126 0-.243-.018-.351-.054-2.16-.144-4.122-.99-5.886-2.538-1.764-1.548-2.646-3.798-2.646-6.75zm5.508-20.304v20.304c0 1.332.369 2.313 1.107 2.943.738.63 1.611.945 2.619.945 1.008 0 1.881-.315 2.619-.945.738-.63 1.107-1.611 1.107-2.943V23.624c0-1.332-.369-2.313-1.107-2.943-.738-.63-1.611-.945-2.619-.945-1.008 0-1.881.315-2.619.945-.738.63-1.107 1.611-1.107 2.943z" fill="#222"/></g></svg>